HIERARCHY
ROOT root
{
	OFFSET 0.000000 0.000000 0.000000
	CHANNELS 6 Xposition Yposition Zposition Zrotation Yrotation Xrotation
	JOINT lhip
	{
		OFFSET 0.058581 -0.082280 -0.017664
		CHANNELS 3 Zrotation Yrotation Xrotation
		JOINT lknee
		{
			OFFSET 0.043451 -0.386469 0.008037
			CHANNELS 3 Zrotation Yrotation Xrotation
			JOINT lankle
			{
				OFFSET -0.014790 -0.426874 -0.037428
				CHANNELS 3 Zrotation Yrotation Xrotation
				JOINT ltoe
				{
					OFFSET 0.041054 -0.060286 0.122042
					CHANNELS 3 Zrotation Yrotation Xrotation
					End Site
					{
						OFFSET 0.000000 0.000000 0.000000
					}
				}
			}
		}
	}
	JOINT rhip
	{
		OFFSET -0.060310 -0.090513 -0.013543
		CHANNELS 3 Zrotation Yrotation Xrotation
		JOINT rknee
		{
			OFFSET -0.043257 -0.383688 -0.004843
			CHANNELS 3 Zrotation Yrotation Xrotation
			JOINT rankle
			{
				OFFSET 0.019056 -0.420046 -0.034562
				CHANNELS 3 Zrotation Yrotation Xrotation
				JOINT rtoe
				{
					OFFSET -0.034840 -0.062106 0.130323
					CHANNELS 3 Zrotation Yrotation Xrotation
					End Site
					{
						OFFSET 0.000000 0.000000 0.000000
					}
				}
			}
		}
	}
	JOINT lowerback
	{
		OFFSET 0.004439 0.124404 -0.038385
		CHANNELS 3 Zrotation Yrotation Xrotation
		JOINT upperback
		{
			OFFSET 0.004488 0.137956 0.026820
			CHANNELS 3 Zrotation Yrotation Xrotation
			JOINT chest
			{
				OFFSET -0.002265 0.056032 0.002855
				CHANNELS 3 Zrotation Yrotation Xrotation
				JOINT lowerneck
				{
					OFFSET -0.013390 0.211636 -0.033468
					CHANNELS 3 Zrotation Yrotation Xrotation
					JOINT upperneck
					{
						OFFSET 0.010113 0.088937 0.050410
						CHANNELS 3 Zrotation Yrotation Xrotation
						End Site
						{
							OFFSET 0.000000 0.000000 0.000000
						}
					}
				}
				JOINT lclavicle
				{
					OFFSET 0.071702 0.114000 -0.018898
					CHANNELS 3 Zrotation Yrotation Xrotation
					JOINT lshoulder
					{
						OFFSET 0.122921 0.045205 -0.019046
						CHANNELS 3 Zrotation Yrotation Xrotation
						JOINT lelbow
						{
							OFFSET 0.255332 -0.015649 -0.022946
							CHANNELS 3 Zrotation Yrotation Xrotation
							JOINT lwrist
							{
								OFFSET 0.265709 0.012698 -0.007375
								CHANNELS 3 Zrotation Yrotation Xrotation
								End Site
								{
									OFFSET 0.000000 0.000000 0.000000
								}
							}
						}
					}
				}
				JOINT rclavicle
				{
					OFFSET -0.082954 0.112472 -0.023707
					CHANNELS 3 Zrotation Yrotation Xrotation
					JOINT rshoulder
					{
						OFFSET -0.113228 0.046853 -0.008472
						CHANNELS 3 Zrotation Yrotation Xrotation
						JOINT relbow
						{
							OFFSET -0.260127 -0.014369 -0.031269
							CHANNELS 3 Zrotation Yrotation Xrotation
							JOINT rwrist
							{
								OFFSET -0.269108 0.006794 -0.006027
								CHANNELS 3 Zrotation Yrotation Xrotation
								End Site
								{
									OFFSET 0.000000 0.000000 0.000000
								}
							}
						}
					}
				}
			}
		}
	}
}
MOTION
Frames: 18
Frame Time: 0.033333
-0.198900 1.082619 0.997918 -3.689915 0.999794 87.496841 -3.596013 0.370581 3.198716 -2.404222 -5.916684 4.594334 5.692868 12.605902 -15.740031 0.000000 -0.000000 0.000000 5.051855 1.410063 -1.747871 -0.015623 0.663420 13.876253 1.157381 -6.595034 -18.953847 0.000000 -0.000000 0.000000 0.547355 -0.023572 11.224371 1.849143 1.104307 -2.951218 0.712453 -0.736576 3.845747 3.335078 5.121249 2.272160 -5.742425 -1.131527 20.605537 -30.812181 7.091164 0.745863 -58.213468 -6.069560 9.154023 15.247437 -33.806981 -1.339357 1.771871 -4.146786 -7.295821 30.727392 0.310768 0.194546 55.243810 6.673428 17.883431 -15.497027 27.217990 -4.089499 1.290422 3.266961 -2.144593 
-0.197670 1.083057 0.997784 -3.702105 0.923731 87.677037 -3.673146 0.264267 2.981120 -2.521320 -5.730028 4.622618 5.811067 12.474939 -15.686398 0.000000 -0.000000 0.000000 4.835035 1.582543 -2.105952 0.113566 0.689386 14.156061 1.289911 -6.705424 -18.919403 0.000000 -0.000000 0.000000 0.422412 -0.009665 11.167554 1.808237 1.164394 -2.938313 0.628122 -0.772290 3.875093 3.392347 5.119746 2.163357 -5.972468 -1.272241 20.834896 -30.761720 7.266873 0.721767 -58.254017 -6.147422 9.271339 15.266817 -33.911346 -1.097648 1.725672 -4.139886 -7.353713 30.853639 0.298213 0.109429 55.474509 6.842770 18.070246 -15.815641 27.119901 -4.243693 1.367184 3.368470 -2.211932 
-0.196124 1.083133 0.997691 -3.575729 0.913678 87.690719 -3.740752 0.361580 2.945504 -2.537565 -5.817316 4.654253 5.766514 12.300719 -15.681042 0.000000 -0.000000 0.000000 4.649911 1.505768 -2.200044 0.259080 0.642655 14.255498 1.313473 -6.705045 -18.906287 0.000000 -0.000000 0.000000 0.400787 -0.081800 11.209712 1.783322 1.087414 -2.870965 0.559292 -0.735886 3.903575 3.529792 5.009986 2.179849 -6.051101 -1.273733 20.865994 -30.806540 7.257778 0.678126 -58.224256 -6.187699 9.242034 15.277455 -33.888800 -1.130455 1.814619 -4.125315 -7.271183 30.805256 0.416543 0.180100 55.401342 6.871459 18.138528 -15.668508 27.377670 -4.233980 1.386108 3.388035 -2.137713 
-0.194443 1.082981 0.997716 -3.402958 0.937810 87.722836 -3.774926 0.460945 3.070574 -2.550984 -6.069699 4.333379 5.741163 12.201148 -15.566232 0.000000 -0.000000 0.000000 4.635625 1.520802 -2.171736 0.181956 0.701569 14.148633 1.226436 -6.962950 -18.881170 0.000000 -0.000000 0.000000 0.437193 -0.098919 11.182613 1.752392 1.168385 -2.831137 0.525233 -0.724956 3.968519 3.359703 4.909977 2.278626 -6.033451 -1.418521 20.856663 -30.952824 7.103584 0.665342 -58.160277 -6.223544 9.313341 15.432879 -33.931874 -1.172825 1.949278 -4.182004 -7.248901 30.792269 0.379944 0.139566 55.396666 6.770005 18.188146 -15.696090 27.662780 -4.252244 1.126754 3.351367 -2.312786 
-0.193811 1.083325 0.997627 -3.427200 0.949181 87.772476 -3.796871 0.455149 3.020290 -2.522107 -5.982873 4.290866 5.755550 12.145587 -15.572303 0.000000 -0.000000 0.000000 4.620397 1.597788 -2.293992 0.137607 0.626246 14.241926 1.231554 -6.945396 -18.889136 0.000000 -0.000000 0.000000 0.353887 -0.079450 11.274791 1.730665 1.232656 -2.919070 0.565826 -0.816847 3.960912 3.389017 4.948500 2.231035 -6.068168 -1.361528 20.995074 -30.871030 7.272151 0.541971 -58.295675 -6.277803 9.258835 15.405849 -33.911520 -1.215297 1.822052 -4.230709 -7.380861 30.845173 0.344429 0.111278 55.465827 6.866966 18.250284 -15.706196 27.581410 -4.221948 1.220071 3.334355 -2.117702 
-0.193160 1.083573 0.997384 -3.267111 1.079196 87.792556 -3.619922 0.488588 3.053841 -2.608737 -6.113206 4.126847 5.746593 12.008701 -15.542081 0.000000 -0.000000 0.000000 4.734348 1.510609 -2.368384 0.115340 0.490934 14.290659 1.269282 -6.962235 -19.000230 0.000000 -0.000000 0.000000 0.297112 -0.110006 11.343625 1.813445 1.187296 -2.905316 0.609119 -0.757109 3.933577 3.530259 4.983654 2.207765 -6.105374 -1.356444 21.061556 -30.824065 7.297503 0.491649 -58.316411 -6.341904 9.244695 15.311296 -34.018965 -1.362033 2.121800 -4.177204 -7.417731 30.873526 0.282015 0.094504 55.438724 6.911390 18.165979 -15.706749 27.617343 -4.397860 1.119053 3.361871 -2.114669 
-0.192107 1.083638 0.997305 -3.259812 1.032269 87.762137 -3.744467 0.439879 3.145682 -2.593098 -6.163100 4.010249 5.790885 12.111384 -15.507502 0.000000 -0.000000 0.000000 4.608713 1.572740 -2.382539 0.138243 0.470607 14.366752 1.265300 -7.117241 -19.116482 0.000000 -0.000000 0.000000 0.058354 -0.168073 11.253209 1.864242 1.130962 -2.688559 0.709478 -0.542706 3.971214 3.542404 4.920908 2.215069 -6.151787 -1.436476 20.941776 -30.882453 7.226346 0.481167 -58.272734 -6.336164 9.331913 15.392278 -34.264385 -1.284166 1.950208 -4.150808 -7.502536 30.900213 0.419578 0.246739 55.330690 6.967780 18.113583 -15.795365 27.606223 -4.473166 1.268244 3.291329 -2.014585 
-0.191603 1.083769 0.997180 -3.210990 1.144338 87.735287 -3.674925 0.413877 3.213680 -2.527723 -6.105393 3.916651 5.854344 12.101904 -15.485298 0.000000 -0.000000 0.000000 4.693025 1.561176 -2.479656 0.152390 0.419404 14.575482 1.373507 -7.079537 -19.254457 0.000000 -0.000000 0.000000 0.123559 -0.128094 11.359606 1.847048 1.138060 -2.726154 0.688423 -0.575430 3.886060 3.617546 4.991201 2.339592 -6.093531 -1.421077 20.929453 -30.891261 7.249884 0.557657 -58.040134 -6.308287 9.279089 15.300346 -34.533630 -1.427731 1.931785 -4.106062 -7.552015 30.996344 0.444365 0.286522 55.239482 6.855770 18.178045 -15.717493 27.645903 -4.403438 1.387434 3.314652 -2.087270 
-0.191071 1.083647 0.996882 -3.179206 1.157080 87.672867 -3.609868 0.739365 3.208210 -2.563841 -6.101043 4.023365 5.707754 11.688023 -15.312631 0.000000 -0.000000 0.000000 4.698940 1.486660 -2.565894 0.128928 0.423583 14.762755 1.205090 -7.202071 -19.345384 0.000000 -0.000000 0.000000 0.093440 -0.063244 11.570754 1.837762 1.294252 -2.901238 0.698246 -0.667447 3.897002 3.731390 5.072252 2.296942 -6.116328 -1.452422 21.132426 -30.982710 7.239000 0.573301 -57.944780 -6.383702 9.249802 15.329539 -34.493039 -1.470610 2.401088 -4.149687 -7.403871 31.150593 0.314552 0.118608 55.281994 6.765924 18.191365 -15.784856 27.494255 -4.570893 0.855866 3.323134 -1.949681 
-0.190338 1.083559 0.996807 -3.040207 1.165248 87.670860 -3.622874 0.510973 3.286409 -2.658483 -6.145422 3.925305 5.774353 11.882906 -15.411824 0.000000 -0.000000 0.000000 4.718918 1.511962 -2.646552 0.071777 0.402501 14.978593 1.267666 -7.359887 -19.474478 0.000000 -0.000000 0.000000 0.041939 -0.002901 11.476649 1.840895 1.312877 -2.757326 0.697659 -0.756486 3.922789 3.738015 5.070118 2.191817 -6.055797 -1.559402 21.162679 -30.978990 7.242556 0.513214 -57.973965 -6.457759 9.276008 15.448028 -34.449456 -1.548958 2.319523 -4.145935 -7.381324 31.282820 0.247725 0.016641 55.362733 6.681728 18.250068 -15.922938 27.412139 -4.525566 0.993400 3.405624 -1.872456 
-0.189530 1.083116 0.996525 -3.001146 1.168536 87.563581 -3.627443 0.541700 3.390933 -2.698985 -6.032204 4.001706 5.740101 11.677089 -15.349458 0.000000 -0.000000 0.000000 4.621167 1.413359 -2.537070 0.168138 0.239954 14.975284 1.220534 -7.372765 -19.567242 0.000000 -0.000000 0.000000 0.010452 -0.056357 11.476749 1.869637 1.196063 -2.603599 0.667386 -0.633089 3.933152 3.826710 5.121992 2.197331 -6.062856 -1.496308 21.251767 -30.904934 7.314420 0.536793 -58.036065 -6.543694 9.215518 15.460792 -34.440709 -1.523580 2.047828 -4.210344 -7.499573 31.336962 0.286058 0.117568 55.337372 6.797527 18.178190 -15.851820 27.276731 -4.524871 1.240831 3.369645 -1.999866 
-0.188912 1.082761 0.996457 -2.871614 1.193647 87.522558 -3.614224 0.635849 3.428748 -2.772044 -6.086781 4.026410 5.693478 11.651284 -15.423754 0.000000 -0.000000 0.000000 4.627264 1.419537 -2.470988 0.042635 0.333524 15.058445 1.274657 -7.139103 -19.564698 0.000000 -0.000000 0.000000 0.049737 -0.141927 11.602777 1.862575 1.138611 -2.756430 0.641294 -0.589350 3.948174 3.795289 5.143116 2.256590 -6.093944 -1.487211 21.272833 -30.912413 7.463419 0.418566 -58.085296 -6.445594 9.202781 15.452713 -34.446957 -1.501211 2.099216 -4.154349 -7.309843 31.320978 0.191698 0.088010 55.388599 6.677208 18.158910 -15.768484 27.252150 -4.522386 1.361234 3.458401 -1.985614 
-0.188440 1.082693 0.996339 -2.845782 1.270212 87.544870 -3.583435 0.520838 3.389127 -2.736733 -6.211083 4.050119 5.736617 11.706610 -15.417294 0.000000 -0.000000 0.000000 4.646771 1.474094 -2.507091 0.143770 0.232563 15.066450 1.283180 -7.324293 -19.554846 0.000000 -0.000000 0.000000 0.133139 -0.130793 11.518606 1.881378 1.183802 -2.711567 0.656277 -0.607889 4.021526 3.724259 5.169111 2.258874 -6.059865 -1.432519 21.225735 -30.968766 7.426570 0.403147 -58.063998 -6.438580 9.244003 15.381002 -34.374474 -1.540499 2.239767 -4.153036 -7.503145 31.352723 0.226719 0.166333 55.369014 6.684547 18.155126 -15.751380 27.152440 -4.554467 1.115877 3.431690 -1.910551 
-0.188160 1.082540 0.996179 -2.902543 1.257273 87.543168 -3.670761 0.540634 3.408101 -2.636885 -6.214191 4.055686 5.724735 11.769180 -15.364496 0.000000 -0.000000 0.000000 4.648332 1.503032 -2.507486 0.105944 0.273283 15.074736 1.199849 -7.420029 -19.524352 0.000000 -0.000000 0.000000 0.076102 -0.071578 11.592165 1.861372 1.260178 -2.779504 0.686743 -0.625530 4.048354 3.736013 5.173954 2.206593 -6.016626 -1.380388 21.254911 -30.941725 7.480713 0.361172 -58.070769 -6.388433 9.273574 15.247900 -34.306981 -1.369756 2.286940 -4.227360 -7.697914 31.364929 0.179056 0.167268 55.368513 6.630032 18.252160 -15.623647 27.190605 -4.471069 0.909119 3.439917 -2.045563 
-0.187735 1.082519 0.996192 -2.863224 1.219991 87.580845 -3.767718 0.332417 3.450255 -2.711512 -6.358765 3.907765 5.776112 12.072504 -15.597137 0.000000 -0.000000 0.000000 4.561884 1.669822 -2.524663 0.126697 0.311687 15.166673 1.353146 -7.398154 -19.609885 0.000000 -0.000000 0.000000 0.038586 -0.073948 11.573627 1.855232 1.317814 -2.768319 0.697422 -0.647227 4.063255 3.721497 5.144816 2.162442 -6.012241 -1.506393 21.275096 -30.927843 7.530077 0.352825 -58.150221 -6.328536 9.333908 15.292803 -34.311428 -1.404662 2.059845 -4.261672 -7.705790 31.361184 0.058478 0.080566 55.486213 6.574286 18.278861 -15.659607 27.190982 -4.432046 1.185308 3.469980 -2.027579 
-0.187510 1.082340 0.996115 -2.763294 1.174411 87.586961 -3.837879 0.433534 3.336032 -2.621364 -6.344300 4.161122 5.804445 11.757192 -15.419002 0.000000 -0.000000 0.000000 4.462594 1.603616 -2.580268 0.168755 0.210424 15.247726 1.268990 -7.422800 -19.532949 0.000000 -0.000000 0.000000 -0.131849 -0.032239 11.731457 1.913959 1.295129 -2.851115 0.782845 -0.709623 4.013273 3.894177 5.083701 2.183051 -6.120041 -1.569351 21.308668 -30.991148 7.612843 0.469815 -58.148348 -6.349567 9.283360 15.365904 -34.365065 -1.230483 1.834522 -4.326402 -7.669431 31.446820 0.006006 0.024305 55.510534 6.566576 18.280728 -15.752004 27.109632 -4.486402 1.082159 3.477207 -1.895692 
-0.187068 1.082257 0.995917 -2.631279 1.266764 87.595330 -3.863551 0.371494 3.301666 -2.503159 -6.413245 4.215644 5.774287 11.932149 -15.504720 0.000000 -0.000000 0.000000 4.469863 1.491125 -2.718705 0.229203 0.106881 15.498547 1.356307 -7.282000 -19.754717 0.000000 -0.000000 0.000000 0.058465 -0.058723 11.725381 1.880476 1.288471 -2.759171 0.724153 -0.724978 4.063084 3.940710 5.021961 2.184439 -6.153255 -1.670265 21.277859 -31.025507 7.528352 0.492326 -58.132866 -6.406629 9.294131 15.367173 -34.381145 -1.355978 1.904353 -4.170866 -7.548485 31.502542 0.040609 -0.068892 55.535953 6.538329 18.222924 -15.819178 27.122249 -4.599306 1.093464 3.478781 -1.851237 
-0.186561 1.082102 0.995931 -2.497975 1.216604 87.584718 -3.969962 0.253133 3.282800 -2.470767 -6.539605 4.302979 5.894480 11.960540 -15.536843 0.000000 -0.000000 0.000000 4.384212 1.408965 -2.701308 0.232419 0.007052 15.554899 1.361253 -7.298055 -19.823658 0.000000 -0.000000 0.000000 0.081759 -0.058078 11.773590 1.858196 1.175376 -2.698900 0.692152 -0.764623 4.104035 3.878427 5.067035 2.162112 -6.143295 -1.711603 21.252348 -31.030980 7.467164 0.513317 -58.127680 -6.375898 9.292190 15.431684 -34.378886 -1.390645 2.000259 -4.128365 -7.510230 31.569308 0.179076 0.031848 55.443040 6.611009 18.181347 -15.807522 27.164168 -4.675503 0.973274 3.473208 -1.766772 
